<?xml version="1.0" encoding="utf-8"?>
<!-- Generator: Adobe Illustrator 21.1.0, SVG Export Plug-In . SVG Version: 6.00 Build 0)  -->
<svg version="1.1" xmlns="http://www.w3.org/2000/svg" xmlns:xlink="http://www.w3.org/1999/xlink" x="0px" y="0px"
	 viewBox="0 0 800 505" style="enable-background:new 0 0 800 505;" xml:space="preserve">
<style type="text/css">
	.st0{fill:#CBFB8E;}
	.st1{fill:#BBED32;}
	.st2{fill:#FFFBCF;}
	.st3{fill:#FF7D5E;}
	.st4{fill:#F9D953;}
	.st5{fill:#6B2B00;}
	.st6{fill:#92D320;}
	.st7{fill:#87C91F;}
	.st8{fill:#FCA8A2;}
	.st9{fill:#D9F0F9;stroke:#BCBCBC;stroke-miterlimit:10;}
	.st10{fill:#F2F8FC;stroke:#B3B6B7;stroke-miterlimit:10;}
	.st11{fill:#AEEBF4;stroke:#B3B6B7;stroke-miterlimit:10;}
	.st12{opacity:0.73;fill:#F99441;}
</style>
<g id="Layer_1">
	<g>
		<rect y="161" class="st0" width="800" height="276"/>
	</g>
</g>
<g id="Layer_2">
	<g>
		<path class="st1" d="M-3.2,284c1.8-1.4,3.8-2.6,5.7-3.7c1.9-1.2,3.9-2.3,5.9-3.3c4.1-1.9,8.2-3.7,12.5-5.2
			c4.3-1.4,8.6-2.7,12.9-3.9c4.4-1,8.8-2.1,13.2-3l6.6-1.3c2.2-0.5,4.4-1,6.6-1.4c4.4-0.8,8.8-1.7,13.3-2.4l6.7-1l3.3-0.5
			c1.1-0.2,2.2-0.3,3.4-0.4c4.5-0.5,9-1,13.5-1.4c18-1.5,36.2-1.6,54.3,0.3c18.1,1.9,36.1,5.9,53.3,11.8c8.6,3,16.6,6.6,24.5,10.4
			c7.9,3.7,15.6,7.6,23.5,10.6c7.9,3,16.1,5.2,24.4,6c4.1,0.3,8.3,0.4,12.4,0.2c1-0.1,2.1-0.1,3.1-0.2l3.1-0.3
			c2.1-0.2,4.1-0.6,6.2-0.9c8.3-1.3,16.5-3.6,24.6-6.3c8.1-2.7,16.2-5.8,24.3-9.2c8.1-3.3,16.3-6.7,24.7-9.9
			c8.4-3.2,17.1-6.2,26.3-8.3c1.1-0.3,2.3-0.6,3.4-0.8l3.5-0.7c2.3-0.5,4.7-0.8,7.1-1.2c1.2-0.2,2.4-0.3,3.6-0.4
			c1.2-0.1,2.4-0.3,3.7-0.3c2.5-0.1,4.9-0.3,7.4-0.2l3.7,0.1l3.8,0.3c2.5,0.1,5,0.5,7.5,0.9c1.3,0.1,2.5,0.5,3.8,0.7
			c1.2,0.3,2.5,0.5,3.7,0.8l3.7,1c1.2,0.3,2.5,0.7,3.7,1.1c9.8,3.3,18,8.6,25.2,14c7.2,5.4,13.8,11,20.9,15c3.5,2,7.1,3.7,10.9,4.9
			l2.8,0.9c0.9,0.3,1.9,0.5,2.9,0.7l2.9,0.6c1,0.2,2,0.3,2.9,0.4c7.8,1.1,15.9,0.9,23.9-0.4c8-1.2,15.9-3.4,23.6-6.1
			c7.8-2.7,15.4-5.7,23.1-9.1c15.3-6.5,30.6-14.8,46.4-22.7c7.9-4,16-7.9,24.3-11.5c8.3-3.6,16.9-6.9,25.8-9.4l3.3-1
			c1.1-0.3,2.3-0.6,3.4-0.8l3.4-0.8c1.1-0.2,2.3-0.5,3.4-0.7l3.4-0.7l3.5-0.5l3.5-0.5l3.5-0.3c9.3-0.8,18.7-0.6,28,0.7
			c9.3,1.4,18.5,4,27,8.1c0.5,0.3,1.1,0.5,1.6,0.8l1.6,0.9l3.1,1.7c1,0.5,2,1.3,3,1.9l2.9,2c1.9,1.4,3.7,3,5.5,4.5
			c1.7,1.6,3.3,3.3,5,5l-6.3,6.4l-4.9-3.7c-1.7-1.1-3.4-2.2-5.2-3.2l-2.7-1.4c-0.9-0.5-1.8-1-2.7-1.3l-2.8-1.2l-1.4-0.6
			c-0.5-0.2-1-0.3-1.4-0.5c-7.6-2.7-15.7-4.2-23.8-4.6c-8.1-0.5-16.3,0.1-24.4,1.4l-3,0.5l-3,0.6l-3,0.6l-3,0.8c-1,0.3-2,0.5-3,0.8
			l-2.9,0.9c-1,0.3-1.9,0.6-2.9,0.9l-2.9,1.1c-7.8,2.9-15.5,6.3-23.1,10c-7.6,3.8-15.1,7.9-22.7,12.2c-15.2,8.4-30.4,17.5-47.2,25.1
			c-8.4,3.7-17.2,6.7-26.3,9c-9.1,2.2-18.4,3.6-27.9,4.1c-9.5,0.5-19.1,0-28.5-1.6c-1.2-0.2-2.4-0.4-3.6-0.6l-3.5-0.8l-1.8-0.4
			c-0.6-0.1-1.2-0.3-1.8-0.4l-3.5-1c-4.6-1.4-9.2-3.1-13.5-4.9c-8.7-3.6-17.2-7.2-25.1-10.5l-11.5-4.7c-3.7-1.5-7.2-2.9-10.6-4.1
			c-13.7-5-28.9-5.6-45.1-3.5c-16.1,2-32.9,6.5-49.9,11c-8.5,2.2-17.2,4.5-25.9,6.5c-8.8,2-17.7,3.7-26.8,4.7
			c-2.3,0.2-4.5,0.5-6.8,0.6l-3.4,0.2c-1.1,0.1-2.3,0.1-3.5,0.1c-4.6,0.2-9.2-0.1-13.8-0.4c-4.6-0.4-9.2-0.8-13.7-1.5l-3.4-0.5
			l-3.4-0.6c-2.3-0.3-4.5-0.8-6.8-1.1c-9-1.6-17.8-3.5-26.5-5.7c-8.6-2.2-17-4.7-25.1-7.2c-8.1-2.4-16.1-4.8-24.3-6.8
			c-1-0.3-2-0.5-3.1-0.8l-3.1-0.7l-6.2-1.4c-2-0.5-4.1-0.9-6.2-1.2l-6.2-1.2c-16.6-2.9-33.5-4.6-50.6-4.7c-2.1-0.1-4.3,0.1-6.4,0.1
			l-6.4,0.2c-4.3,0.2-8.5,0.6-12.8,0.9c-4.2,0.4-8.5,1-12.7,1.6c-4.2,0.7-8.4,1.5-12.6,2.4c-4.1,1-8.2,2.2-12.4,3.3
			c-4.1,1.2-8.2,2.5-12.3,3.5c-4.1,1.2-8.2,2.4-12.4,3.4c-2.1,0.6-4.2,1.1-6.3,1.6c-2.1,0.5-4.3,0.9-6.5,1.2L-3.2,284z"/>
	</g>
	<g>
		<path class="st1" d="M-6.2,214c4-1.9,8.1-3.8,12.1-5.7l12.4-5.1l12.7-4.6c4.3-1.3,8.6-2.7,12.9-3.9c4.4-1,8.8-2.1,13.2-2.9
			c4.4-0.7,8.9-1.5,13.3-2.1c4.5-0.5,8.9-1.1,13.4-1.4l6.7-0.4c2.2-0.1,4.5-0.4,6.7-0.3c18-0.5,36,0.5,53.8,3.1
			c17.8,2.6,35.3,6.7,52.5,12.1c4.3,1.3,8.5,2.8,12.7,4.1c4.2,1.4,8.4,2.7,12.5,4c8.3,2.6,16.6,5,24.7,6.8
			c8.2,1.8,16.3,3.2,24.2,3.7c7.9,0.5,15.9,0.1,24-1c8.1-1.1,16.2-3,24.3-5.3c8.1-2.3,16.3-4.8,24.6-7.6c8.3-2.7,16.7-5.5,25.3-8.1
			c8.6-2.6,17.5-4.9,26.6-6.5c9.1-1.6,18.6-2.6,28.3-2.2c9.6,0.4,19.4,2,28.6,5.3c4.6,1.6,9,3.6,13.2,5.7c4.2,2.1,8.2,4.4,12,6.6
			c3.9,2.2,7.6,4.5,11.3,6.7c1.8,1.1,3.7,2.1,5.5,3.1c0.9,0.5,1.8,1,2.7,1.5c0.9,0.5,1.8,1,2.7,1.4c3.6,1.9,7.2,3.5,10.9,4.7l2.8,1
			c0.9,0.4,1.9,0.5,2.8,0.8l2.9,0.8c1,0.2,1.9,0.4,2.9,0.6l2.9,0.6l3,0.4c1,0.1,2,0.3,3,0.4l3,0.2c1,0.1,2,0.2,3,0.2l3.1,0.1
			c2,0.1,4.1,0,6.2-0.1c16.6-0.7,33.3-5.1,49.1-11.7c7.9-3.3,15.7-7.2,23.4-11.3c3.8-2.1,7.6-4.2,11.4-6.4l11.4-6.6
			c7.6-4.4,15.4-8.8,23.4-12.8c8-4,16.3-7.6,25-10.4c8.7-2.9,17.8-4.9,26.9-6c9.2-1,18.5-1.1,27.7,0c1.2,0.2,2.3,0.2,3.5,0.5
			l3.4,0.6c2.3,0.4,4.6,1,6.8,1.6c4.5,1.2,8.9,2.8,13.2,4.8c8.5,3.9,16.5,9.4,22.8,16.4l-6.3,6.4c-6.2-5.3-13.3-9.5-20.9-12.3
			c-3.8-1.4-7.7-2.6-11.7-3.4c-2-0.4-4-0.9-6-1.1l-3-0.4c-1-0.2-2-0.2-3.1-0.3c-8.2-0.6-16.5-0.4-24.7,0.7l-3.1,0.4l-3.1,0.6
			l-3.1,0.6l-3,0.7c-1,0.2-2,0.5-3,0.7l-3,0.9c-1,0.3-2,0.5-3,0.9l-3,1c-16,5.2-31.7,12.3-47.4,19.9c-3.9,1.9-7.8,3.9-11.8,5.8
			l-11.8,6c-7.9,4-15.8,8-23.9,11.7c-4.1,1.8-8.2,3.6-12.4,5.3c-4.2,1.7-8.4,3.2-12.7,4.7c-8.6,2.8-17.5,5.2-26.7,6.6
			c-2.3,0.3-4.6,0.7-6.9,0.8l-3.5,0.3c-1.2,0.1-2.3,0.1-3.5,0.1l-3.5,0.1c-1.2,0-2.4-0.1-3.6-0.1l-3.6-0.2l-3.6-0.4
			c-1.2-0.1-2.4-0.3-3.6-0.5l-3.5-0.7c-1.2-0.3-2.4-0.4-3.5-0.8l-3.5-1c-4.7-1.3-9.2-3.1-13.4-5c-1.1-0.5-2.1-1-3.2-1.5
			c-1-0.5-2.1-1-3.1-1.5c-2.1-1.1-4-2.1-6-3.2c-3.9-2.2-7.7-4.4-11.5-6.5c-3.7-2.1-7.4-4.1-11.1-5.9c-3.7-1.8-7.3-3.4-11-4.6
			c-14.7-5-30.8-4.8-46.9-1.5c-16.2,3.2-32.3,9.1-49,14.6c-16.7,5.6-34,11.3-52.7,13.7c-9.3,1.2-18.9,1.6-28.5,0.6
			c-9.5-1-18.7-3.2-27.4-6c-8.7-2.8-17.1-6.2-25.3-9.5l-6.1-2.5l-6.1-2.4c-4-1.6-8.1-3.1-12.1-4.5c-32.3-11.3-66.9-15.3-101-13.5
			c-4.3,0.2-8.5,0.6-12.8,0.9c-1.1,0.1-2.1,0.2-3.2,0.3l-3.2,0.4l-6.4,0.7c-4.2,0.5-8.4,1.3-12.7,1.9c-2.1,0.3-4.2,0.8-6.3,1.2
			l-6.3,1.1c-4.2,0.8-8.4,1.7-12.6,2.4c-4.2,0.9-8.4,1.9-12.5,2.9c-4.1,1.1-8.3,2.3-12.4,3.5c-4.1,1.4-8.2,2.7-12.3,4L-6.2,214z"/>
	</g>
	<g>
		<path class="st1" d="M-3.2,367c1.7-1.7,3.5-3.1,5.4-4.4c1.9-1.3,3.8-2.6,5.8-3.7c4-2.1,8.2-3.9,12.4-5.4c4.3-1.4,8.6-2.6,13.1-3.6
			c4.4-0.8,8.9-1.7,13.3-2.4c2.2-0.3,4.5-0.7,6.7-1c2.2-0.3,4.4-0.8,6.6-1.1c4.5-0.6,8.9-1.3,13.3-1.9c4.5-0.4,8.9-1,13.4-1.4
			c4.5-0.3,8.9-0.7,13.4-1c4.5-0.2,9-0.5,13.5-0.6c4.5,0,9-0.3,13.5-0.2l6.8,0.1c2.3,0,4.5,0,6.8,0.1l6.8,0.3
			c2.3,0.1,4.5,0.2,6.8,0.4l6.8,0.6l3.4,0.3c1.1,0.1,2.3,0.3,3.4,0.4l6.8,1l3.4,0.5c1.1,0.2,2.2,0.4,3.4,0.7
			c8.9,1.7,17.8,4.1,26.4,7c8.6,2.9,16.7,6.4,24.7,9.9c7.9,3.5,15.7,7.1,23.7,9.9c7.9,2.8,16,4.9,24.2,5.6c4.1,0.3,8.1,0.4,12.2,0.2
			c1-0.1,2-0.1,3.1-0.2l3.1-0.3c2-0.2,4.1-0.6,6.1-0.8c8.2-1.3,16.3-3.5,24.4-6.2c8.1-2.7,16.1-5.7,24.2-9
			c8.1-3.2,16.3-6.6,24.8-9.7c8.5-3.1,17.3-6,26.5-8c1.2-0.3,2.3-0.5,3.5-0.8l3.5-0.6c2.3-0.5,4.8-0.7,7.2-1.1
			c1.2-0.2,2.4-0.2,3.7-0.4c1.2-0.1,2.4-0.2,3.7-0.3c2.5-0.1,4.9-0.2,7.5-0.1l3.8,0.1l3.8,0.3c2.5,0.2,5,0.6,7.6,1
			c1.3,0.2,2.5,0.5,3.8,0.8c1.2,0.3,2.5,0.5,3.7,0.9l3.7,1.1c1.2,0.4,2.5,0.7,3.7,1.2c9.7,3.4,17.9,8.7,25.2,14
			c3.6,2.7,7.1,5.5,10.4,8.1c3.4,2.6,6.7,5.2,10.2,7.4c3.4,2.3,6.9,4.3,10.7,5.8l2.8,1.1c0.9,0.4,1.9,0.6,2.9,0.9l2.9,0.8
			c1,0.3,2,0.4,3,0.6c8,1.5,16.4,1.4,24.5,0c8.2-1.4,16.1-4.2,23.8-7.4c7.7-3.2,15.2-6.8,22.7-10.3c15.1-7,30.5-14.9,46.8-22.1
			c16.2-7.2,33-14,50.4-19.4c8.7-2.6,17.8-4.8,26.9-6.3c9.1-1.5,18.5-2.3,28-1.7c9.5,0.6,19,2.6,28,6.6c0.6,0.2,1.1,0.4,1.7,0.7
			l1.6,0.9c1.1,0.6,2.1,1.2,3.2,1.8c2.1,1.3,4,2.8,5.9,4.3c1.9,1.6,3.5,3.5,5.1,5.3c0.8,1,1.5,2,2.1,3c0.7,1,1.3,2.1,1.8,3.2
			l-6.3,6.4c-2.2-0.7-4-1.6-5.9-2.5c-1-0.4-1.9-0.8-2.8-1.2c-0.9-0.4-1.8-0.9-2.7-1.2c-0.9-0.4-1.8-0.8-2.7-1.1
			c-0.9-0.4-1.7-0.9-2.7-1.2c-0.9-0.4-1.8-0.7-2.7-1.1c-0.9-0.4-1.8-0.8-2.7-1.1c-7.2-2.9-14.9-4.8-22.9-6c-8-1.2-16.2-1.7-24.5-1
			c-8.3,0.6-16.4,2.5-24.3,5.3c-7.9,2.8-15.7,6.4-23.2,10.5c-7.5,4.1-14.8,8.6-22.2,13.3c-14.7,9.3-29.8,18.7-46.9,25.7
			c-8.5,3.4-17.5,6-26.6,7.7c-9.2,1.7-18.5,2.5-27.7,2.8c-9.3,0.3-18.6,0-27.9-1.2c-1.2-0.2-2.3-0.3-3.5-0.5l-3.5-0.6
			c-1.2-0.2-2.3-0.3-3.5-0.6l-3.5-0.8c-4.7-1-9.3-2.4-13.7-3.9c-9-3-17.4-6.6-25.4-10c-3.9-1.7-7.8-3.3-11.4-4.8
			c-3.7-1.5-7.2-2.9-10.6-4c-13.8-4.7-28.9-5.1-45-2.7c-16,2.3-32.6,6.9-49.6,11.5c-8.5,2.3-17.1,4.7-26,6.6c-8.8,2-17.8,3.8-27,4.8
			c-2.3,0.2-4.6,0.5-6.9,0.6l-3.5,0.2c-1.2,0.1-2.3,0.1-3.5,0.1c-4.7,0.2-9.4-0.1-14-0.4c-9.3-0.8-18.5-2.3-27.4-4.1
			c-9-1.8-17.8-4-26.3-6.4c-8.6-2.4-16.8-5.1-24.9-7.6c-16.1-5-32.2-9.7-48.8-13.3c-2.1-0.5-4.2-0.9-6.2-1.2l-6.3-1.1
			c-2.1-0.4-4.2-0.7-6.3-0.9l-6.4-0.8c-2.1-0.3-4.2-0.4-6.4-0.5l-6.4-0.4c-2.1-0.2-4.3-0.1-6.4-0.1l-6.4,0c-2.1,0-4.3,0.2-6.4,0.3
			l-6.4,0.4l-1.6,0.1l-1.6,0.2l-3.2,0.4l-6.4,0.8c-4.2,0.6-8.4,1.4-12.6,2.1c-4.2,0.8-8.3,1.9-12.5,3c-4.1,1.3-8.1,2.6-12.2,3.9
			c-4,1.4-8.1,2.7-12.2,3.8c-4,1.3-8.1,2.4-12.4,3.2c-4.2,0.9-8.5,1.7-13.2,1.6L-3.2,367z"/>
	</g>
	<path id="saver" class="st2" d="M588.1,183.3c-93.7,0-169.7,52.6-169.7,117.6s76,117.6,169.7,117.6s169.7-52.6,169.7-117.6
		S681.8,183.3,588.1,183.3z M588,344.3c-52.3,1.1-94.7-17.5-99.4-48.9c-5-34,37.1-61.1,89.1-65.7c52.1-4.6,96.5,17.3,99.4,48.9
		S643.8,343.2,588,344.3z"/>
	<g id="XMLID_1_">
		<path class="st3" d="M553.4,416c-4.8-0.6-9.6-1.4-14.4-2.3c0-0.1-0.1-0.2-0.1-0.3c-16.8-36.1,9.2-63.6,17.4-71.1
			c9.9,1.5,20.6,2.1,31.7,1.9c13.7-0.3,26.2-2.5,37.2-6.1c35.5,27,23,72.2,23,72.2c-15.6,4.7-33.1,7.1-52.1,7.8
			C581.8,418.6,567.6,417.9,553.4,416z"/>
	</g>
	<path class="st3" d="M662.3,315.8c0,0,59.3-13.5,70.4,46.3c0,0,35-37,22.8-79.9c0,0-36.5-40.8-78.4-0.9
		C677,281.2,681,294.2,662.3,315.8z"/>
	<path class="st3" d="M465.7,219.4c0,0,51.9-6.9,50,29.3c0,0,32.7-17.9,49.8-17.2c0,0,9.9-16.1-17.5-45.2
		C548,186.4,502.1,192.6,465.7,219.4z"/>
	<path class="st3" d="M489.1,281.6c0,0-32.3-29.7-70.4,19c0,0-2.4,43.1,39.4,76.2c0,0-2.2-48.7,45.5-56
		C503.6,320.8,482.7,305.1,489.1,281.6z"/>
	<path class="st4" d="M678,293.4c6.5-31.9-15-72.7,1.6-106.4c15.6-31.8-16.5-51.1-19.6-52.8l0,0c0,0-0.1,0-0.1-0.1
		c-0.1,0-0.1-0.1-0.1-0.1l0,0c-3.2-1.5-37.2-17.2-54.7,13.6c-18.5,32.6-64.3,37.8-87,61.3c-5.3,5.9-59.5,46.8-19.6,106.4
		c0,0,19,26.2,45.2,38.8c25.2,14.5,57.5,15.5,57.5,15.5C672.9,368.9,676.2,301,678,293.4z"/>
	<path class="st5" d="M660.4,76.7c0,0,12.5,24-12.5,58.9l13.6,7.2c0,0,11.5-18,16.3-38.4c2.8-12.3,3.3-25.4-2.6-35.9
		C675.2,68.4,661.8,59.3,660.4,76.7z"/>
	<path class="st6" d="M678.7,104.7c0,0,29.4-61.2,97.4,7.2C776.1,112,746,100,678.7,104.7z"/>
	<path class="st7" d="M678.4,104.6c10.7,49.5,63,30.1,97.4,7.2C775.9,111.8,722.2,95.5,678.4,104.6z"/>
	<ellipse transform="matrix(0.434 -0.9009 0.9009 0.434 56.8562 626.4838)" class="st8" cx="527" cy="268" rx="10.5" ry="7.7"/>
	<ellipse transform="matrix(0.434 -0.9009 0.9009 0.434 80.0088 723.8068)" class="st8" cx="616" cy="298.2" rx="10.5" ry="7.7"/>
	<g>
		<g>
			<path d="M602.9,266.3c7.8-3.5,15.1-2.9,21,3.6c2.6,2.9,6.8-1.4,4.2-4.2c-7.8-8.7-18.1-9.1-28.3-4.6
				C596.4,262.7,599.4,267.8,602.9,266.3L602.9,266.3z"/>
		</g>
	</g>
	<g>
		<g>
			<path d="M564.1,252.5c0.4-11.1-12.4-20.1-22.8-16.7c-3.6,1.2-2.1,7,1.6,5.8c6.8-2.2,15.5,3.5,15.2,10.9
				C558,256.3,564,256.3,564.1,252.5L564.1,252.5z"/>
		</g>
	</g>
	<g>
		<g>
			<path d="M571.2,271.9c-0.1,1.1,0.1,2.1,0.6,3c0.4,0.7,1.4,0.9,2.1,0.5c0.7-0.4,0.9-1.3,0.5-2.1c-0.1-0.2-0.2-0.4-0.2-0.6
				c0-0.2,0-0.6,0-0.9c0.1-0.8-0.8-1.5-1.5-1.5C571.8,270.4,571.3,271.1,571.2,271.9L571.2,271.9z"/>
		</g>
	</g>
	<g>
		<g>
			<path d="M560,295.8c0.6,1.8,1.6,3.4,3.4,4.1c1.7,0.8,3.7,0.7,5.5,0.7c1.9,0,1.9-3,0-3c-2.6,0-5,0.2-6-2.6
				C562.3,293.2,559.4,294,560,295.8L560,295.8z"/>
		</g>
	</g>
	<path class="st9" d="M517,312.8l0.8,37.8c0,0,5,9.7,17.6,9.7c13,0,16.8-9.7,16.8-9.7l1.3-38.6L517,312.8z"/>
	<path class="st10" d="M526.6,321.6c0,0,19.3,5.5,25.6-5.5s-14.7-11.3-17.6-11.3c-2.9,0-15.1,0.4-17.2,6.3S526.6,321.6,526.6,321.6z
		"/>
	<path class="st11" d="M564,296.8c0,0-10.6-1.5-11.8-1.2c-1.2,0.4-13,25.1-13.4,27.2l3.8-0.4l10.9-23.9l12.2,0.8
		C565.7,299.4,566.1,297.3,564,296.8z"/>
	<path class="st12" d="M518.9,325.3c0,0,14,19.6,32.5,2.4l-0.1,20c0,0-14.7,15-32.5-3.4V325.3z"/>
</g>
</svg>
